# xmcd
#
# Track frame offsets:
#	150
#	15600
#	31512
#	52362
#	69612
#	92936
#	109173
#	131748
#
# Disc length: 1995 seconds
#
# Revision: 0
# Processed by: cddbd v1.5.2PL0 Copyright (c) Steve Scherf et al.
# Submitted via: dBpowerAMP V4.0
#
DISCID=6d07c908
DTITLE=Nemglan - Nemglan
DYEAR=2008
DGENRE=Celtic
TTITLE0=Whelan's-/ The Grenn Eyed Lass
TTITLE1=The Maid At The Church-/ Johnny's Wedding
TTITLE2=Dust On The Windowstill-/ Ships are Sailling-/ The Dunmore Lasses
TTITLE3=The Belfast Hornpipe-/ Polkas
TTITLE4=Farewell To Ireland
TTITLE5=Waltz-/ Up Down And Around
TTITLE6=Out On The Ocean-/ O'Connell's Trip To Parliament-/ Jenny's Welcome To Charley
TTITLE7=How Could I Name You
EXTD=
EXTT0=
EXTT1=
EXTT2=
EXTT3=
EXTT4=
EXTT5=
EXTT6=
EXTT7=
PLAYORDER=
